<?xml version="1.0" standalone="no"?>
<!DOCTYPE svg PUBLIC "-//W3C//DTD SVG 1.1//EN" "http://www.w3.org/Graphics/SVG/1.1/DTD/svg11.dtd" >
<svg xmlns="http://www.w3.org/2000/svg">
<metadata></metadata>
<defs>
<font id="bandera_proregular" horiz-adv-x="1230" >
<font-face units-per-em="2048" ascent="1536" descent="-512" />
<missing-glyph horiz-adv-x="555" />
<glyph horiz-adv-x="2048" />
<glyph horiz-adv-x="2048" />
<glyph unicode="&#xd;" horiz-adv-x="2048" />
<glyph unicode=" "  horiz-adv-x="555" />
<glyph unicode="&#x09;" horiz-adv-x="555" />
<glyph unicode="&#xa0;" horiz-adv-x="555" />
<glyph unicode="!" horiz-adv-x="647" d="M223 76q0 43 33 69q28 25 72 25q40 0 71 -25q33 -30 33 -69q0 -40 -33 -70q-30 -24 -71 -24q-45 0 -72 24q-33 26 -33 70zM240 1350v186h172v-186l-19 -916h-133z" />
<glyph unicode="&#x22;" horiz-adv-x="694" d="M78 1532h151l-30 -463h-119zM410 1532h151l-31 -463h-118z" />
<glyph unicode="#" horiz-adv-x="1138" d="M115 446v107h217l53 221h-270v109h297l69 280l99 -24l-64 -256h207l63 264l99 -27l-58 -237h195v-109h-221l-53 -221h274v-107h-301l-68 -282l-96 26l61 256h-208l-66 -264l-96 25l57 239h-190zM436 553h207l53 221h-207z" />
<glyph unicode="$" horiz-adv-x="960" d="M100 420l103 8l12 -170q120 -35 234 -35q138 0 207 54.5t69 134.5q0 51 -33.5 87.5t-86.5 58t-117.5 40t-129 41t-117.5 53.5t-86.5 86t-33.5 129q0 115 81.5 189t213.5 88l2 250h123l8 -254q92 -17 182 -80l23 69h84v-282h-111l-12 100q-96 84 -215 84q-96 0 -155.5 -39 t-59.5 -106q0 -51 33.5 -88t87 -60t118.5 -42.5t130 -43t118.5 -54.5t87 -84t33.5 -124q0 -125 -84 -211.5t-258 -107.5l-2 -213h-123l-8 208q-87 2 -162.5 15.5t-107.5 26.5l-33 12z" />
<glyph unicode="%" horiz-adv-x="1906" d="M113 971q0 175 99.5 281t272.5 106q171 0 273 -106.5t102 -280.5q0 -176 -99.5 -280.5t-275.5 -104.5q-178 0 -275 104t-97 281zM248 973q0 -125 61.5 -198t175.5 -73t177 73.5t63 197.5q0 123 -63 195.5t-177 72.5t-175.5 -72t-61.5 -196zM545 25l676 1288l127 -21 l-676 -1288zM1047 356q0 175 99.5 281t272.5 106q171 0 273 -106.5t102 -280.5q0 -176 -99.5 -280.5t-275.5 -104.5q-178 0 -275 104t-97 281zM1182 358q0 -124 61 -197t176 -73q114 0 177 73t63 197q0 123 -63 196t-177 73q-113 0 -175 -72.5t-62 -196.5z" />
<glyph unicode="&#x26;" horiz-adv-x="1433" d="M113 377q0 64 23.5 118t64.5 91.5t89 63.5t105 42q-89 48 -148 131t-59 193q0 155 106.5 248.5t270.5 93.5q98 0 213 -76l15 57h96v-297h-119l-6 125q-73 64 -162 64q-117 0 -184.5 -62.5t-67.5 -169.5q0 -114 73 -186.5t161 -75.5h309l57 287h97v-287h311v-116h-311 v-338q0 -100 36 -142.5t111 -42.5q37 0 76.5 4t60.5 8l21 5v-115q-60 -29 -201 -29q-178 0 -231 123q-119 -123 -328 -123q-126 0 -221 33.5t-150 91.5t-81.5 128.5t-26.5 152.5zM281 385q0 -56 19 -105.5t56.5 -90.5t102.5 -65t149 -24q76 0 133.5 20t87 51t42 52t18.5 41 v357h-324q-74 -3 -136 -27t-105 -78t-43 -131z" />
<glyph unicode="'" horiz-adv-x="364" d="M78 1532h151l-30 -463h-119z" />
<glyph unicode="(" horiz-adv-x="720" d="M207 557q0 129 16.5 251t42.5 213t57 171.5t62.5 135.5t57.5 94.5t43 57.5l16 19l123 -51q-10 -13 -27.5 -38.5t-61 -112t-77 -182.5t-61 -247.5t-27.5 -310.5t26 -308t63.5 -248.5t75 -176.5t63.5 -112l26 -36l-123 -51q-6 6 -16.5 18.5t-41.5 56t-58.5 93t-61.5 131.5 t-58.5 171t-41.5 211t-17 251z" />
<glyph unicode=")" horiz-adv-x="720" d="M96 -324q10 13 27 38.5t60.5 112t77 182.5t60.5 247.5t27 310.5q0 116 -14 227t-36 196t-49 161t-54 129t-49 92t-36 58l-14 18l123 51q6 -6 16.5 -18.5t41.5 -56t58.5 -93t61.5 -131.5t58.5 -171t41.5 -211t17 -251t-16.5 -251t-42.5 -213t-57.5 -171.5t-62.5 -135.5 t-57 -94.5t-42 -57.5l-17 -19z" />
<glyph unicode="*" horiz-adv-x="933" d="M45 1079l47 144l334 -152l-37 371h154l-41 -369l340 150l47 -144l-359 -78l244 -276l-123 -90l-184 317l-186 -317l-123 90l245 272z" />
<glyph unicode="+" horiz-adv-x="964" d="M80 506v125h338v342h133v-342h334v-125h-334v-342h-133v342h-338z" />
<glyph unicode="," horiz-adv-x="528" d="M92 -281q71 67 106 157.5t27 162.5q-16 5 -32 18q-29 26 -29 60q0 35 29 61q24 21 61 21q36 0 63 -21q45 -39 45 -131q0 -100 -52 -211t-136 -170z" />
<glyph unicode="-" horiz-adv-x="698" d="M80 506v125h541v-125h-541z" />
<glyph unicode="." horiz-adv-x="567" d="M176 76q0 43 33 69q28 25 72 25q40 0 71 -25q33 -30 33 -69q0 -40 -33 -70q-30 -24 -71 -24q-45 0 -72 24q-33 26 -33 70z" />
<glyph unicode="/" horiz-adv-x="987" d="M-14 -512l899 2048h153l-897 -2048h-155z" />
<glyph unicode="0" horiz-adv-x="1337" d="M133 684q0 325 134.5 499.5t400.5 174.5q267 0 401.5 -174.5t134.5 -499.5q0 -216 -57.5 -374t-179.5 -248.5t-299 -90.5q-133 0 -235.5 51.5t-167.5 145.5t-98.5 224.5t-33.5 291.5zM309 684q0 -283 90.5 -434.5t268.5 -151.5q179 0 269.5 151t90.5 435q0 279 -89 413 t-271 134q-181 0 -270 -134.5t-89 -412.5z" />
<glyph unicode="1" horiz-adv-x="872" d="M131 1186l342 145h137v-1210l123 -6l-8 -115h-463l-6 123l190 6v1055l-272 -117z" />
<glyph unicode="2" horiz-adv-x="1132" d="M100 0v137q3 1 41.5 29t101 78.5t136 115.5t147.5 144t134.5 157.5t98.5 163.5t38 156q0 125 -69.5 183.5t-221.5 58.5q-90 0 -151.5 -31t-94.5 -68l-8 -104h-119l8 319h97l16 -88q136 107 299 107q210 0 317 -97t107 -266q0 -95 -48.5 -201t-119 -195t-167.5 -182 t-175.5 -156t-161.5 -122h590l18 158l115 -8l-8 -289h-920z" />
<glyph unicode="3" horiz-adv-x="1128" d="M123 289l110 8l17 -168q87 -27 209 -27q179 0 283 87t104 221q0 112 -78 176.5t-221 64.5q-38 0 -73 -11.5t-50 -22.5l-16 -11l-76 80l426 508h-486l-14 -166h-115l9 311l133 -8h673v-96l-411 -469q7 0 22 1t23 1q190 0 306 -96t116 -262q0 -196 -156 -317.5t-401 -121.5 q-68 0 -126.5 6.5t-93.5 15.5t-60.5 18t-35.5 15l-10 7z" />
<glyph unicode="4" horiz-adv-x="1173" d="M70 457q96 167 199.5 409.5t176.5 483.5l156 -19q-137 -439 -356 -852h510v473l22 185h142v-658h172v-114l-172 -11v-241l122 -7l-8 -106h-409l-9 115l140 6v233h-676z" />
<glyph unicode="5" horiz-adv-x="1103" d="M123 289l110 6l17 -164q78 -29 215 -29q168 0 268.5 95t100.5 237q0 119 -93.5 192.5t-248.5 73.5q-56 0 -105.5 -11.5t-71 -22.5t-26.5 -17l-86 10l67 672h553l13 74l114 -8l-8 -211l-139 8h-408l-41 -393q77 18 152 18q228 0 361.5 -102t133.5 -283q0 -208 -152 -335.5 t-388 -127.5q-72 0 -132.5 6.5t-95.5 15.5t-59.5 18t-33.5 15l-9 7z" />
<glyph unicode="6" d="M133 532q0 61 6 130q24 347 153.5 521.5t340.5 174.5q120 0 235 -88l21 69h96v-297h-119l-8 105q-90 84 -209 84q-160 0 -251.5 -127.5t-106.5 -380.5q153 123 356 123q222 0 346.5 -104t124.5 -291q0 -94 -30 -179t-87.5 -153t-151 -108t-210.5 -40q-241 0 -373.5 150 t-132.5 411zM301 485q0 -180 85.5 -287.5t252.5 -107.5q81 0 143.5 32.5t97.5 86.5t52.5 116t17.5 128q0 124 -81 203t-240 79q-71 0 -131 -18.5t-97.5 -47t-59.5 -53.5t-32 -47q-8 -24 -8 -84z" />
<glyph unicode="7" horiz-adv-x="999" d="M74 1020l8 319l131 -8h743v-135q-154 -255 -295 -580t-210 -616h-191q129 520 506 1186h-565l-13 -166h-114z" />
<glyph unicode="8" horiz-adv-x="1191" d="M113 344q0 69 26 127t71 98t93 67t105 46q-50 17 -92.5 42t-83.5 64.5t-65 99.5t-24 134q0 159 121.5 247.5t331.5 88.5t332.5 -89t122.5 -251q0 -234 -275 -334q43 -12 82 -28t81.5 -45t72.5 -65.5t49.5 -90t19.5 -117.5q0 -186 -128.5 -276.5t-356.5 -90.5 q-229 0 -356 91.5t-127 281.5zM293 350q0 -133 80 -200.5t223 -67.5q144 0 224.5 67.5t80.5 198.5q0 62 -23.5 111t-57.5 77.5t-79.5 49t-80.5 28t-70 11.5q-31 -4 -63.5 -12t-76.5 -28t-77 -48.5t-56.5 -77.5t-23.5 -109zM313 1014q0 -62 22 -111.5t53 -78t74 -49.5 t75 -29.5t65 -12.5q29 5 59 13t71.5 29t72 50t52.5 78t22 109q0 235 -283 235q-139 0 -211 -59t-72 -174z" />
<glyph unicode="9" d="M113 899q0 93 32.5 175.5t93 146t156 100.5t213.5 37q243 0 366.5 -131t123.5 -389q0 -108 -6 -168q-15 -340 -166 -519.5t-391 -179.5q-95 0 -176.5 10.5t-115.5 20.5l-34 10l-8 275l110 8l17 -176q103 -21 207 -21q170 0 280 131.5t123 370.5q-131 -141 -354 -141 q-216 0 -343.5 124t-127.5 316zM281 899q0 -61 19.5 -118t57 -105t101 -77.5t143.5 -29.5q68 0 125.5 16.5t95 42.5t59.5 48t36 43q12 62 12 160q0 177 -77.5 268.5t-244.5 91.5q-83 0 -147.5 -29.5t-102.5 -78.5t-57.5 -108.5t-19.5 -123.5z" />
<glyph unicode=":" horiz-adv-x="571" d="M176 76q0 43 33 69q28 25 72 25q40 0 71 -25q33 -30 33 -69q0 -40 -33 -70q-30 -24 -71 -24q-45 0 -72 24q-33 26 -33 70zM176 852q0 44 33 70q27 24 72 24q41 0 71 -24q33 -30 33 -70t-33 -70q-30 -24 -71 -24q-45 0 -72 24q-33 26 -33 70z" />
<glyph unicode=";" horiz-adv-x="567" d="M115 -281q71 67 106 157.5t27 162.5q-18 6 -33 18q-29 26 -29 60q0 35 29 61q24 21 61 21t64 -21q45 -39 45 -131q0 -100 -52 -211t-136 -170zM176 852q0 44 33 70q27 24 72 24q41 0 71 -24q33 -30 33 -70t-33 -70q-30 -24 -71 -24q-45 0 -72 24q-33 26 -33 70z" />
<glyph unicode="&#x3c;" horiz-adv-x="874" d="M145 651l576 408l72 -78l-480 -330l482 -332l-74 -77z" />
<glyph unicode="=" horiz-adv-x="1112" d="M80 303v125h952v-125h-952zM80 709v125h952v-125h-952z" />
<glyph unicode="&#x3e;" horiz-adv-x="874" d="M80 319l481 332l-481 330l74 78l577 -408l-577 -409z" />
<glyph unicode="?" horiz-adv-x="974" d="M86 1233l6 311h96l17 -71q127 90 268 90q105 0 185.5 -31.5t125.5 -83.5t67.5 -111.5t22.5 -122.5q0 -69 -18 -124.5t-48 -94.5t-69 -72t-81.5 -60.5t-84.5 -55.5t-78 -63t-63 -77t-39.5 -102.5t-5.5 -134.5l-94 -8q-19 87 -19 145q0 72 23 130t60 96.5t82 72t90 65 t82 66t60 85t23 112.5q0 47 -12.5 86.5t-41 75t-82.5 56t-130 20.5q-131 0 -217 -86l-8 -113h-117zM238 76q0 44 32 69q28 25 72 25q41 0 72 -25q32 -29 32 -69q0 -41 -32 -70q-30 -24 -72 -24q-45 0 -72 24q-32 25 -32 70z" />
<glyph unicode="@" horiz-adv-x="1982" d="M133 406q0 428 238.5 660t691.5 232q386 0 593.5 -190t207.5 -528q0 -162 -33 -283t-92 -190t-130 -101.5t-155 -32.5q-89 0 -141 24.5t-70 84.5q-93 -111 -264 -111q-176 0 -283.5 115t-107.5 324q0 197 112 311.5t304 114.5q152 0 243 -84l31 55h74v-629q0 -60 28 -84 t82 -24q52 0 97 24t85.5 78t64.5 156t24 243q0 295 -171 453t-499 158q-376 0 -579 -191t-203 -585q0 -359 201 -556.5t550 -197.5q104 0 198.5 19.5t154.5 47.5t105.5 56t65.5 47l19 20l49 -104q-7 -8 -20.5 -22.5t-64.5 -50.5t-112.5 -63.5t-168 -50t-226.5 -22.5 q-436 0 -667.5 231.5t-231.5 645.5zM721 410q0 -159 76 -249.5t211 -90.5q46 0 84.5 13t62 30.5t42 41.5t26 38t12.5 28v406q-5 11 -12 22t-24.5 28.5t-39.5 30t-60 22t-83 9.5q-146 0 -220.5 -86.5t-74.5 -242.5z" />
<glyph unicode="A" horiz-adv-x="1433" d="M-25 123l162 6l467 1202h227l467 -1210l162 -6l-8 -115h-461v98l135 4l-120 308h-594l-121 -304l145 -4l-8 -102h-444zM455 522h506l-252 672z" />
<glyph unicode="B" horiz-adv-x="1292" d="M84 1217l8 114h559q229 0 342 -83t113 -234q0 -184 -178 -301q122 -33 188 -111.5t66 -198.5q0 -188 -128 -295.5t-399 -107.5h-561l-8 123l164 6v1081zM403 125h242q193 0 282 71t89 207q0 228 -287 228h-326v-506zM403 743h318q33 0 70 14.5t73 43t59 80t23 116.5 q0 112 -76.5 160.5t-226.5 48.5h-240v-463z" />
<glyph unicode="C" horiz-adv-x="1361" d="M113 676q0 156 50 285t138 215.5t208.5 134t260.5 47.5q163 0 311 -101l29 82h104v-460h-135l-12 247q-121 93 -272 93q-224 0 -365 -144t-141 -399q0 -257 140.5 -411t377.5 -154q81 0 157 21.5t126.5 52.5t89.5 62.5t57 52.5l18 22l66 -111q-3 -5 -9.5 -13.5 t-30.5 -33.5t-51.5 -47.5t-73.5 -50.5t-96.5 -48t-121 -33.5t-145.5 -13.5q-216 0 -370.5 89t-232 247t-77.5 369z" />
<glyph unicode="D" horiz-adv-x="1536" d="M84 1217l8 114h633q337 0 517.5 -163.5t180.5 -485.5q0 -324 -181.5 -503t-514.5 -179h-633l-8 123l164 6v1081zM422 139h307q250 0 383 140t133 403q0 510 -520 510h-303v-1053z" />
<glyph unicode="E" d="M84 1217l8 114h852l148 8v-305h-136l-8 164h-526v-463l606 2v-129h-606v-475h582l16 184l127 -8l-8 -309h-1045l-8 123l164 6v1081z" />
<glyph unicode="F" horiz-adv-x="1126" d="M84 1217l8 114h873l147 8v-305h-135l-8 164h-547v-467h582v-129h-582v-481l205 -6l-9 -115h-524l-8 123l164 6v1081z" />
<glyph unicode="G" horiz-adv-x="1480" d="M113 682q0 317 179.5 496.5t491.5 179.5q155 0 303 -98l23 79h104v-399h-127l-12 188q-110 91 -272 91q-257 0 -385.5 -137.5t-128.5 -399.5q0 -264 131.5 -417.5t353.5 -153.5q70 0 128.5 12.5t97 33.5t67 43t45.5 47.5t25 40.5t12 29v207h-322v113h467v-637h-102 l-23 143q-147 -172 -432 -172q-196 0 -338 89t-214 248.5t-72 373.5z" />
<glyph unicode="H" horiz-adv-x="1568" d="M84 1217l8 114h490v-123l-160 -6v-477h725v477l-166 6l6 123h490v-123l-158 -6v-1081l164 -6l-8 -115h-484l-8 123l164 6v467h-725v-469l164 -4l-8 -123h-484l-8 123l164 6v1081z" />
<glyph unicode="I" horiz-adv-x="673" d="M84 1217l8 114h490v-123l-160 -6v-1081l164 -6l-8 -115h-484l-8 123l164 6v1081z" />
<glyph unicode="J" horiz-adv-x="919" d="M41 303l119 8l14 -188q74 -21 148 -21q210 0 210 281v827l-194 7l8 114h488v-123l-129 -6v-819q0 -120 -27 -203t-78.5 -127.5t-114 -63t-145.5 -18.5q-87 0 -158 11.5t-99 23.5l-28 12z" />
<glyph unicode="K" horiz-adv-x="1460" d="M84 1217l8 114h473v-106l-143 -6v-592l188 127l424 471l-90 4v102h469v-123l-219 -6l-451 -502l502 -575l223 -2l-8 -123h-313l-80 70l-453 520l-192 -131v-332l164 -4l-8 -123h-484l-8 123l164 6v1081z" />
<glyph unicode="L" horiz-adv-x="1144" d="M84 1217l8 114h490v-123l-160 -6v-1069h565l17 193l126 -9l-8 -317h-1028l-8 123l164 6v1081z" />
<glyph unicode="M" horiz-adv-x="2052" d="M86 123l164 6l2 1081l-166 7l6 114h381l557 -1155l551 1155h379v-123l-160 -6l2 -1075l164 -4l-8 -123h-461l-8 106l147 7v985h-2l-528 -1098h-164l-530 1098h-2v-989l149 -7l-8 -102h-457z" />
<glyph unicode="N" horiz-adv-x="1613" d="M84 1217l8 114h338l793 -1114l-4 47v944l-166 4l6 119h479v-123l-158 -6v-1214h-180l-797 1099h-2l9 -63v-901l165 -4l-8 -119h-473l-8 123l164 6v1081z" />
<glyph unicode="O" horiz-adv-x="1558" d="M113 684q0 317 175.5 495.5t489.5 178.5q315 0 492.5 -178.5t177.5 -495.5q0 -322 -179.5 -517.5t-490.5 -195.5q-206 0 -357.5 90t-229.5 250.5t-78 372.5zM289 684q0 -260 130 -416.5t359 -156.5t360.5 156.5t131.5 416.5q0 254 -130.5 394.5t-361.5 140.5t-360 -140.5 t-129 -394.5z" />
<glyph unicode="P" horiz-adv-x="1187" d="M84 1217l8 114h520q498 0 498 -401q0 -119 -43.5 -211.5t-116 -146t-158 -80.5t-178.5 -27h-204v-352l192 -7l-6 -106h-502l-8 123l164 6v1081zM410 586h172q72 0 133 18t110.5 56t78 104.5t28.5 155.5q0 286 -348 286h-174v-620z" />
<glyph unicode="Q" horiz-adv-x="1558" d="M113 684q0 317 175.5 495.5t489.5 178.5q316 0 493 -175t177 -491q0 -191 -65 -342.5t-190.5 -247.5t-297.5 -120q155 -148 324 -148q57 0 116 21l17 -129q-73 -25 -148 -25q-135 0 -265.5 72t-211.5 200q-192 11 -331 103t-211 248t-72 360zM289 684q0 -260 130 -416.5 t359 -156.5t360.5 156.5t131.5 416.5q0 254 -130.5 394.5t-361.5 140.5t-360 -140.5t-129 -394.5z" />
<glyph unicode="R" horiz-adv-x="1286" d="M84 1217l8 114h520q240 0 369 -98t129 -295q0 -151 -79 -262.5t-204 -163.5l291 -387l205 -2l-8 -123h-293l-68 68l-295 407h-249v-362l149 -7l-8 -106h-457l-8 123l164 12v1075zM410 604h223q128 0 214.5 88.5t86.5 237.5q0 142 -88 209t-262 67h-174v-602z" />
<glyph unicode="S" horiz-adv-x="1187" d="M145 346l127 8l15 -207q141 -49 297 -49q163 0 247 73t84 185q0 51 -25.5 90t-69 64.5t-99.5 46t-118.5 39t-124.5 39t-118 50.5t-99.5 68t-69 97t-25.5 133q0 168 116 271.5t316 103.5q150 0 291 -101l26 82h103v-313h-133l-11 113q-104 92 -247 92q-138 0 -214.5 -62 t-76.5 -172q0 -54 25.5 -96t69 -69t99.5 -49t118 -41t123.5 -39t117.5 -48t99.5 -64t69 -91t25.5 -125q0 -184 -127 -294t-356 -110q-83 0 -159.5 8.5t-127 20.5t-89.5 24t-56 20l-18 9z" />
<glyph unicode="T" horiz-adv-x="1105" d="M-4 1012l8 327l148 -8h811l147 8v-327h-127l-12 186h-332v-1071l164 -4l-8 -123h-484l-8 123l164 6v1069h-328l-16 -186h-127z" />
<glyph unicode="U" horiz-adv-x="1519" d="M47 1217l8 114h490v-114l-160 -7v-721q0 -162 97 -265t280 -103q184 0 281.5 103t97.5 265v719l-168 4l6 119h485v-114l-157 -7v-755q0 -99 -33 -185t-97.5 -153.5t-171.5 -106.5t-245 -39q-137 0 -244 39t-172 106.5t-98 153.5t-33 185v755z" />
<glyph unicode="V" horiz-adv-x="1376" d="M-43 1217l8 114h461v-114l-133 -7l403 -1081l402 1079l-142 4l9 119h452v-114l-151 -7l-461 -1210h-225l-463 1210z" />
<glyph unicode="W" horiz-adv-x="2099" d="M-43 1217l8 114h461v-114l-135 -7l313 -1020l367 1141h180l375 -1136l303 1013l-148 4l9 119h452v-114l-145 -7l-381 -1210h-182l-377 1120l-371 -1120h-182l-389 1210z" />
<glyph unicode="X" horiz-adv-x="1425" d="M-4 123l209 4l401 539l-399 544l-199 7l6 114h486v-114l-97 -5l310 -426v-2l2 2l309 424l-98 2v119h481v-123l-201 -4l-391 -534l408 -545l207 -2l-7 -123h-491v115l92 2l-315 430l-316 -426l96 -2v-119h-485z" />
<glyph unicode="Y" horiz-adv-x="1304" d="M-68 1217l7 114h485v-114l-107 -5l349 -518l344 516l-105 2v119h467v-123l-188 -4l-436 -651v-426l163 -4l-8 -123h-483l-8 123l161 6v422l-450 659z" />
<glyph unicode="Z" horiz-adv-x="1245" d="M92 0v117l834 1081h-678l-12 -164h-134l7 297v8l149 -8h887v-117l-834 -1081h707l16 184l127 -8l-8 -309h-1061z" />
<glyph unicode="[" horiz-adv-x="788" d="M207 -156v1592h557v-117h-412v-1356h412v-119h-557z" />
<glyph unicode="\" horiz-adv-x="987" d="M-51 1536h153l899 -2048h-153z" />
<glyph unicode="]" horiz-adv-x="788" d="M23 -37h411v1354h-411v119h557v-1592h-557v119z" />
<glyph unicode="^" horiz-adv-x="794" d="M78 1065l317 342l322 -342l-68 -66l-252 275l-254 -275z" />
<glyph unicode="_" horiz-adv-x="1480" d="M80 -188h1321v-125h-1321v125z" />
<glyph unicode="`" horiz-adv-x="485" d="M-33 1456l158 19l197 -293l-117 -11z" />
<glyph unicode="a" horiz-adv-x="1097" d="M82 264q0 50 15 92.5t46 73.5t66 55t86.5 41t95.5 29t105.5 21t104 13.5t101.5 10.5q42 4 62 6v72q0 135 -53 194.5t-179 59.5q-133 0 -225 -86l-8 -133h-125l6 321h105l14 -76q129 95 276 95q353 0 353 -373v-559l123 -6l-9 -115h-249l-25 131q-8 -14 -19 -29.5 t-38.5 -40.5t-61.5 -43.5t-88.5 -32.5t-118.5 -14q-173 0 -266.5 77t-93.5 216zM250 281q0 -195 242 -195q56 0 104 15t76 34t50.5 44t30 37.5t11.5 21.5v260h-1h-1h-1h-1h-1h-1l-1 -1h-1h-1h-1h-1h-1h-1h-1h-1h-1h-1h-1h-1h-1l-1 -1h-1h-2q-226 -16 -316 -41 q-166 -45 -174 -163v-11z" />
<glyph unicode="b" horiz-adv-x="1214" d="M53 1413l8 123h279v-625h2q3 6 10 15.5t34.5 34t61 43t92 34t126.5 15.5q216 0 343.5 -128t127.5 -364q0 -170 -56 -302t-169.5 -210t-268.5 -78q-69 0 -128 12.5t-96.5 32t-58 34.5t-32.5 28l-23 -78h-131v1407zM340 190q5 -6 13.5 -14t31 -23t49.5 -27t71 -21t93 -9 q186 0 277.5 125t91.5 336q0 194 -88.5 281.5t-260.5 87.5q-59 0 -109.5 -15t-80 -37t-51 -44t-29.5 -37l-8 -15v-588z" />
<glyph unicode="c" horiz-adv-x="997" d="M78 522q0 259 122.5 395t354.5 136q130 0 254 -101l22 82h107v-348h-127l-10 145q-94 101 -221 101q-171 0 -251.5 -95.5t-80.5 -312.5q0 -216 93.5 -324t260.5 -108q53 0 103.5 12.5t84 31t59.5 36.5t38 30l12 13l74 -82q-4 -7 -13 -17.5t-42.5 -38.5t-73.5 -49.5 t-109 -39t-147 -17.5q-247 0 -378.5 142.5t-131.5 408.5z" />
<glyph unicode="d" horiz-adv-x="1228" d="M78 506q0 256 124.5 401.5t358.5 145.5q61 0 116 -10t89 -24.5t59 -29.5t36 -25l11 -10h2v453l-120 6l8 123h276v-1415l123 -6l-8 -115h-258l-16 113q-10 -16 -30 -35.5t-58.5 -45.5t-102.5 -43.5t-141 -17.5q-210 0 -339.5 147t-129.5 388zM248 510q0 -199 91 -305.5 t257 -106.5q62 0 116 18t87 45.5t50 46.5t25 34v589q-97 97 -258 97q-191 0 -279.5 -105.5t-88.5 -312.5z" />
<glyph unicode="e" horiz-adv-x="1060" d="M78 514q0 255 132.5 397t356.5 142q208 0 318 -111.5t110 -333.5q0 -32 -6 -63.5t-12 -47.5l-6 -16h-729q9 -191 102.5 -288t255.5 -97q58 0 111 14t87 33.5t60 39.5t38 34l11 14l78 -84q-5 -7 -14 -19t-43.5 -42.5t-75.5 -53.5t-110 -42t-146 -19q-241 0 -379.5 141.5 t-138.5 401.5zM244 594h600q2 27 2 47q0 291 -277 291q-148 0 -229.5 -87.5t-95.5 -250.5z" />
<glyph unicode="f" horiz-adv-x="739" d="M98 895v123l125 6v166q0 194 70.5 283.5t230.5 89.5q102 0 189 -68l16 49h96v-287h-116l-11 119q-51 64 -137 64q-97 0 -135.5 -57t-38.5 -209v-150h350v-129h-350v-776l123 -4l-8 -115h-393l-9 123l123 4v768h-125z" />
<glyph unicode="g" horiz-adv-x="1089" d="M84 -182q0 192 209 260q-57 54 -57 147q0 85 94 133q-100 46 -155.5 133.5t-55.5 204.5q0 78 25 140.5t67 102.5t101 66t122 37t135 11q126 0 222 -41l251 12l9 -125l-127 -4q47 -77 47 -199q0 -180 -113.5 -281.5t-304.5 -101.5q-7 0 -19.5 -0.5t-44.5 -5t-56 -12.5 t-44 -24t-20 -38q0 -49 47.5 -77.5t177.5 -34.5q90 -4 158 -14t127.5 -31t97 -53.5t59 -82.5t21.5 -116q0 -167 -123 -266t-365 -99q-244 0 -364.5 97.5t-120.5 261.5zM242 -182q0 -109 83 -172.5t246 -63.5q158 0 243 62t85 168q0 45 -16.5 76.5t-43 51t-74.5 31.5 t-95.5 17.5t-122.5 9.5q-56 4 -88 8q-86 -7 -151.5 -55t-65.5 -133zM276 696q0 -126 73 -198t200 -72q124 0 193 71.5t69 200.5t-64.5 182.5t-187.5 53.5q-283 0 -283 -238z" />
<glyph unicode="h" horiz-adv-x="1234" d="M68 123l122 6v1278l-120 6l6 123h278v-600h2l7 6q7 7 20.5 17.5t33 22.5t48.5 24.5t62 23t78.5 17t94.5 6.5q175 0 270 -78t95 -240v-614l123 -6l-8 -115h-279v705q0 208 -258 208q-55 0 -105 -10.5t-82 -26t-56.5 -31t-35.5 -25.5l-10 -11v-688l123 -6l-8 -115h-393z " />
<glyph unicode="i" horiz-adv-x="552" d="M76 123l123 6v766l-121 6l6 123h278v-903l123 -6l-8 -115h-393zM178 1319q0 46 29 72q28 22 72 22q42 0 73 -22q29 -29 29 -72t-29 -72q-26 -20 -71 -20q-49 0 -74 22q-29 23 -29 70z" />
<glyph unicode="j" horiz-adv-x="544" d="M-133 -504l43 131q47 -20 121 -20q72 0 124 84t52 237v967l-119 6l8 123h275v-1096q0 -119 -28 -212t-75 -147.5t-102.5 -82t-116.5 -27.5q-64 0 -109.5 9.5t-59.5 18.5zM186 1319q0 46 29 72q28 22 72 22q42 0 73 -22q29 -29 29 -72t-29 -72q-26 -20 -71 -20 q-49 0 -74 22q-29 23 -29 70z" />
<glyph unicode="k" horiz-adv-x="1116" d="M68 123l122 6v1278l-120 6l6 123h278v-969l138 68l233 274l-70 4l9 111h393v-123l-189 -18l-268 -303l336 -447l188 -2l-8 -131h-252l-82 86l-319 414l-109 -54v-333l107 -7l-6 -106h-379z" />
<glyph unicode="l" horiz-adv-x="544" d="M68 123l122 6v1278l-120 6l6 123h278v-1415l123 -6l-8 -115h-393z" />
<glyph unicode="m" horiz-adv-x="1744" d="M76 123l123 6v766l-121 6l6 123h260l12 -100q9 10 21 21.5t42.5 32t64.5 36t86 27.5t108 12q201 0 260 -127q15 15 34 29.5t62.5 40t108 41.5t139.5 16q150 0 221.5 -67.5t71.5 -225.5v-639l123 -6l-8 -115h-281v735q0 104 -42.5 142t-139.5 38q-68 0 -130 -24 t-86.5 -42.5t-43.5 -37.5q0 -7 1 -24t1 -25v-641l123 -6l-9 -115h-280v735q0 103 -41.5 141.5t-136.5 38.5q-46 0 -90 -11t-71.5 -23.5t-54 -31t-33.5 -25t-14 -13.5v-690l123 -6l-8 -115h-393z" />
<glyph unicode="n" horiz-adv-x="1243" d="M76 123l123 6v766l-121 6l6 123h260l14 -90q7 8 18.5 18t42 29.5t67.5 34t96.5 26t126.5 11.5q366 0 366 -318v-614l121 -6l-6 -115h-281v705q0 109 -64.5 158.5t-191.5 49.5q-55 0 -105.5 -10.5t-82.5 -26t-56.5 -31t-35.5 -25.5l-11 -11v-688l123 -6l-8 -115h-393z" />
<glyph unicode="o" horiz-adv-x="1173" d="M78 520q0 254 130 393.5t378 139.5q249 0 378.5 -139.5t129.5 -393.5t-132.5 -401.5t-375.5 -147.5q-246 0 -377 146.5t-131 402.5zM248 518q0 -201 84 -313.5t254 -112.5q172 0 255 112t83 314q0 414 -338 414q-171 0 -254.5 -107.5t-83.5 -306.5z" />
<glyph unicode="p" horiz-adv-x="1228" d="M68 -389l122 6v1278l-120 6l6 123h258l14 -115q12 17 32 35t61 46t106.5 45.5t142.5 17.5q213 0 337 -127.5t124 -364.5q0 -127 -31.5 -234t-91 -186.5t-152 -124.5t-208.5 -45q-61 0 -116 10t-89.5 24.5t-60.5 29.5t-37 25l-11 10v-461l123 -6l-8 -115h-393zM354 188 q8 -9 25 -21.5t48 -30t80 -29t105 -11.5q188 0 278.5 122.5t90.5 338.5q0 198 -87.5 283.5t-260.5 85.5q-51 0 -97 -13t-75 -30.5t-54.5 -40t-35.5 -36t-17 -24.5v-594z" />
<glyph unicode="q" horiz-adv-x="1214" d="M80 506q0 255 128 401t363 146q65 0 123 -13t96 -32.5t58 -33t31 -24.5l30 74h131v-1415l121 -6l-8 -115h-393l-8 123l122 6v504h-2q-3 -6 -10 -16t-34 -36t-60.5 -46t-92 -36t-126.5 -16q-211 0 -340 147t-129 388zM248 510q0 -203 91 -307.5t259 -104.5q54 0 101 13.5 t75 30.5t52.5 41.5t32.5 35.5t15 23v589q-97 97 -256 97q-192 0 -281 -104t-89 -314z" />
<glyph unicode="r" horiz-adv-x="868" d="M68 901l8 123h252l14 -158h2q4 8 11.5 20.5t34.5 44.5t57.5 57t81.5 45t106 20q45 0 90 -7.5t67 -14.5l23 -7v-303h-119l-10 194q-63 5 -84 5q-46 0 -88 -16.5t-68.5 -39.5t-46.5 -46t-29 -40l-8 -16v-641l140 -6l-8 -115h-410l-8 123l123 6v766z" />
<glyph unicode="s" horiz-adv-x="960" d="M100 285l103 8l12 -170q120 -35 234 -35q138 0 207 54.5t69 133.5q0 51 -33.5 87.5t-86.5 58t-117.5 40t-129 41.5t-117.5 54t-86.5 86t-33.5 129q0 128 100 204.5t254 76.5q136 0 256 -88l23 69h84v-282h-111l-12 100q-96 84 -215 84q-96 0 -155.5 -39t-59.5 -106 q0 -51 33.5 -88t87 -60t118.5 -42.5t130 -43t118.5 -54.5t87 -84t33.5 -124q0 -68 -25 -124.5t-75.5 -102t-137.5 -71.5t-202 -26q-96 0 -180.5 13.5t-120.5 27.5l-37 13z" />
<glyph unicode="t" horiz-adv-x="749" d="M82 895v123l125 4l18 309h146v-307h311v-129h-311v-584q0 -105 32 -153.5t105 -48.5q27 0 66.5 4t65.5 8l26 4v-111q-90 -30 -209 -30q-129 0 -189.5 67.5t-60.5 222.5v621h-125z" />
<glyph unicode="u" horiz-adv-x="1234" d="M49 901l8 123h277v-664q0 -112 68.5 -179.5t189.5 -67.5q55 0 105 10.5t82 25.5t56.5 30t34.5 25l11 11v680l-121 6l8 123h279v-903l120 -6l-6 -115h-260l-14 92q-121 -121 -352 -121q-169 0 -267 96t-98 263v565z" />
<glyph unicode="v" horiz-adv-x="1054" d="M-53 901l8 123h268l307 -854h2l269 731l-96 4v119h397v-123l-139 -6l-347 -895h-178l-348 895z" />
<glyph unicode="w" horiz-adv-x="1605" d="M-45 901l8 123h266l213 -823h2l275 823h162l282 -823h2l191 708l-109 4v111h398v-123l-127 -6l-269 -895h-174l-270 817l-279 -817h-174l-262 895z" />
<glyph unicode="x" horiz-adv-x="1173" d="M4 0v123l176 4l297 395l-280 373l-181 6l9 123h264l299 -418h2l215 299l-62 2l9 117h383v-123l-162 -6l-279 -373l305 -403l177 -4l-7 -115h-249l-82 90l-254 344l-234 -315h39l-8 -119h-377z" />
<glyph unicode="y" horiz-adv-x="1079" d="M-53 901l8 123h266l340 -844h2l273 721l-109 4v119h395v-123l-135 -6l-358 -918q-202 -518 -430 -518q-41 0 -74.5 4.5t-52 10.5t-31.5 12.5t-17 11.5l-4 4l17 113q71 -25 141 -25q143 0 297 410l-383 895z" />
<glyph unicode="z" horiz-adv-x="987" d="M82 0v111l606 788h-436l-12 -164h-117l6 289v8l133 -8h631v-111l-608 -788h481l14 184l119 -8l-8 -301h-809z" />
<glyph unicode="{" horiz-adv-x="886" d="M231 532v132q46 0 96.5 21.5t88 65.5t37.5 97q0 60 -31 190.5t-31 204.5q0 70 19.5 121t65.5 90t128.5 58.5t202.5 19.5v-117q-149 0 -210.5 -53t-61.5 -158q0 -66 30.5 -194.5t30.5 -196.5q0 -64 -38 -120.5t-103 -94.5q65 -39 103 -95.5t38 -119.5q0 -68 -30.5 -196.5 t-30.5 -194.5q0 -105 61.5 -158t210.5 -53v-117q-120 0 -202.5 19.5t-128.5 58.5t-65.5 90t-19.5 121q0 74 31 204.5t31 190.5q0 53 -37.5 97t-88 65.5t-96.5 21.5z" />
<glyph unicode="|" horiz-adv-x="688" d="M268 -512v2048h152v-2048h-152z" />
<glyph unicode="}" horiz-adv-x="886" d="M80 -219q149 0 210.5 53t61.5 158q0 66 -30.5 194.5t-30.5 196.5q0 63 37.5 119.5t103.5 95.5q-66 37 -103.5 93.5t-37.5 121.5q0 68 30.5 196.5t30.5 194.5q0 105 -61.5 158t-210.5 53v117q120 0 202.5 -19.5t128.5 -58.5t65.5 -90t19.5 -121q0 -74 -31 -204.5 t-31 -190.5q0 -53 37.5 -97t87.5 -65.5t96 -21.5v-132q-46 0 -96 -21.5t-87.5 -65.5t-37.5 -97q0 -60 31 -190.5t31 -204.5q0 -70 -19.5 -121t-65.5 -90t-128.5 -58.5t-202.5 -19.5v117z" />
<glyph unicode="~" horiz-adv-x="1361" d="M63 678q4 8 12.5 21t39.5 46.5t69.5 59t104 46.5t139.5 21q82 0 149 -18.5t114 -45.5t91.5 -54t104 -45.5t129.5 -18.5q43 0 80.5 9t60.5 22t40.5 26t24.5 22l7 9l67 -71q-4 -7 -11 -19t-35 -43t-61.5 -54.5t-91.5 -43t-124 -19.5q-75 0 -138.5 18t-109.5 44t-92 52.5 t-108.5 44.5t-137.5 18q-49 0 -92 -11t-69.5 -26.5t-46 -30.5t-27.5 -26l-9 -11z" />
<glyph unicode="&#xa2;" horiz-adv-x="997" d="M78 659q0 239 105 373.5t306 153.5l3 248h122l9 -252q89 -18 186 -92l22 81h107v-348h-127l-10 146q-93 100 -221 100q-171 0 -251.5 -95t-80.5 -312q0 -216 93.5 -324.5t260.5 -108.5q53 0 103.5 12.5t84 30.5t59.5 36.5t38 31.5l12 12l74 -82q-4 -6 -12 -16t-38.5 -36 t-67 -47t-98.5 -39.5t-132 -22.5l-2 -211h-125l-9 217q-199 26 -305 166t-106 378z" />
<glyph unicode="&#xa3;" horiz-adv-x="1208" d="M109 0v137h90q73 48 103 129t30 195q0 28 -4 98l-219 4v125h208q-20 192 -20 301q0 170 103 269.5t282 99.5q122 0 236 -86l20 67h96v-297h-119l-10 113q-79 68 -184 68q-118 0 -181 -61.5t-63 -180.5q0 -101 12 -293h531v-129h-524q7 -296 -78 -422h616l17 160l114 -8 l-8 -289h-1048z" />
<glyph unicode="&#xa5;" horiz-adv-x="1304" d="M-68 1217l7 114h485v-114l-107 -5l349 -518l344 516l-105 2v119h467v-123l-188 -4l-342 -510h248v-96h-314l-28 -45v-133h342v-96h-342v-197l163 -4l-8 -123h-483l-8 123l161 6v195h-340v96h340v131l-32 47h-308v96h242l-352 516z" />
<glyph unicode="&#xa8;" horiz-adv-x="882" d="M92 1319q0 39 27 63q28 21 59 21q34 0 62 -21q26 -26 26 -63q0 -36 -26 -62q-23 -20 -62 -20q-36 0 -59 20q-27 24 -27 62zM455 1319q0 40 26 63q28 21 62 21q29 0 61 -21q27 -27 27 -63q0 -35 -27 -62q-26 -20 -61 -20q-39 0 -62 20q-26 23 -26 62z" />
<glyph unicode="&#xa9;" horiz-adv-x="1740" d="M174 662q0 321 184 508.5t508 187.5q327 0 513 -187.5t186 -508.5q0 -322 -184.5 -506.5t-514.5 -184.5q-326 0 -509 184.5t-183 506.5zM287 662q0 -283 154 -441t425 -158q273 0 429.5 158t156.5 441q0 282 -157 443t-429 161q-270 0 -424.5 -161t-154.5 -443zM524 668 q0 167 96.5 261.5t239.5 94.5q97 0 176 -61l17 45h69v-256h-94l-8 116q-60 60 -143 60q-111 0 -174.5 -65t-63.5 -195q0 -125 76.5 -206t179.5 -81q47 0 88.5 10t66.5 24t44 28t26 24l8 10l37 -69q-3 -5 -9.5 -13.5t-30.5 -30.5t-53.5 -39t-79.5 -30.5t-107 -13.5 q-154 0 -257.5 108t-103.5 279z" />
<glyph unicode="&#xab;" horiz-adv-x="1146" d="M197 512l352 350l69 -76l-272 -276l272 -281l-69 -77zM582 512l352 350l70 -76l-273 -276l273 -281l-70 -77z" />
<glyph unicode="&#xad;" horiz-adv-x="698" d="M80 506v125h541v-125h-541z" />
<glyph unicode="&#xae;" horiz-adv-x="1464" d="M123 928q0 284 163.5 453t444.5 169q282 0 447 -169t165 -453t-162.5 -452.5t-449.5 -168.5q-288 0 -448 168t-160 453zM236 928q0 -253 128.5 -391t366.5 -138t369 138.5t131 390.5t-131.5 394t-368.5 142q-236 0 -365.5 -143.5t-129.5 -392.5zM537 602v649h196 q135 0 203 -44.5t68 -141.5q0 -156 -162 -195l153 -268h-100l-147 256h-121v-256h-90zM627 922h106q77 0 125.5 34t48.5 109q0 117 -172 117h-108v-260z" />
<glyph unicode="&#xb4;" horiz-adv-x="485" d="M121 1180l194 293l158 -17l-235 -285z" />
<glyph unicode="&#xb8;" horiz-adv-x="550" d="M88 -440l25 63q7 -7 20 -16.5t55 -26t86 -16.5q74 0 111 33t37 92q0 38 -31.5 64.5t-69 36.5t-69 16.5t-31.5 9.5l27 178h84l-19 -133q0 -3 23 -7.5t55.5 -14t65 -26t55.5 -49.5t23 -77q0 -95 -57 -148t-169 -53q-44 0 -82.5 7.5t-63 18.5t-42.5 22t-25 18z" />
<glyph unicode="&#xbb;" horiz-adv-x="1146" d="M141 227l273 273l-271 282l68 80l352 -362l-352 -348zM526 227l273 273l-271 282l68 80l352 -362l-352 -348z" />
<glyph unicode="&#x2c6;" horiz-adv-x="794" d="M76 1315l274 207h92l273 -207l-53 -98l-267 194l-264 -194z" />
<glyph unicode="&#x2da;" horiz-adv-x="972" d="M154 1413q0 93 59 153t149 60q87 0 147 -60t60 -153q0 -94 -58.5 -152.5t-148.5 -58.5q-94 0 -151 58t-57 153zM231 1413q0 -61 37.5 -99t93.5 -38t93 38t37 99t-38 100t-92 39q-56 0 -93.5 -38.5t-37.5 -100.5z" />
<glyph unicode="&#x2dc;" horiz-adv-x="937" d="M109 1341q2 4 6 10.5t19.5 23t35.5 29.5t55 23.5t76 10.5q50 0 104 -16.5t92.5 -36t87 -36t89.5 -16.5q40 0 73.5 10.5t47.5 21.5l14 11l20 -86q-1 -3 -4 -8.5t-15 -19t-29 -23.5t-48.5 -18.5t-70.5 -8.5q-46 0 -98.5 16t-92 34.5t-89.5 34.5t-93 16t-83 -17t-58 -34 l-19 -17z" />
<glyph unicode="&#x400;" d="M84 1217l8 114h852l148 8v-305h-136l-8 164h-526v-463l606 2v-129h-606v-475h582l16 184l127 -8l-8 -309h-1045l-8 123l164 6v1081zM393 1733l158 18l197 -293l-117 -10z" />
<glyph unicode="&#x401;" d="M84 1217l8 114h852l148 8v-305h-136l-8 164h-526v-463l606 2v-129h-606v-475h582l16 184l127 -8l-8 -309h-1045l-8 123l164 6v1081zM397 1595q0 40 27 64q27 20 59 20q35 0 62 -20q26 -26 26 -64q0 -35 -26 -61q-24 -21 -62 -21q-35 0 -59 21q-27 24 -27 61zM760 1595 q0 41 26 64q27 20 62 20q31 0 61 -20q27 -27 27 -64q0 -34 -27 -61q-27 -21 -61 -21q-38 0 -62 21q-26 23 -26 61z" />
<glyph unicode="&#x402;" horiz-adv-x="1540" d="M-4 1055l8 284l148 -8h786l147 8l9 -284l-136 -8l-12 155h-315v-530q7 7 22 19.5t54 36.5t83.5 43t111 33.5t136.5 14.5q202 0 288.5 -82t86.5 -254v-100q0 -412 -319 -412q-45 0 -86 9.5t-67.5 23t-46 27t-28.5 23.5l-8 9l14 103q70 -70 162 -70q36 0 67.5 9.5 t64.5 33.5t53 74t22 121v112q0 129 -59 179.5t-207 50.5q-63 0 -123.5 -16t-106 -40.5t-71 -42t-43.5 -32.5v-424l147 -6l-8 -115h-467l-8 123l164 6v1073h-318l-10 -155z" />
<glyph unicode="&#x403;" horiz-adv-x="995" d="M84 1217l8 114h766l148 8v-362h-134l-10 221h-440v-1077l184 -6l-8 -115h-504l-8 123l164 6v1081zM481 1456l195 293l158 -16l-236 -285z" />
<glyph unicode="&#x404;" horiz-adv-x="1370" d="M113 668q0 156 49 285.5t136 218t208.5 137.5t263.5 49q161 0 315 -105l25 86h104v-383h-127l-12 172q-124 91 -287 91q-220 0 -351.5 -130.5t-143.5 -377.5h797v-129h-793q21 -232 153.5 -351.5t354.5 -119.5q81 0 157 20t126 48.5t88 57t56 48.5l17 20l68 -108 q-7 -9 -21 -24.5t-62.5 -54.5t-104.5 -68.5t-146.5 -54t-187.5 -24.5q-317 0 -499.5 189t-182.5 508z" />
<glyph unicode="&#x405;" horiz-adv-x="1187" d="M145 346l127 8l15 -207q141 -49 297 -49q163 0 247 73t84 185q0 51 -25.5 90t-69 64.5t-99.5 46t-118.5 39t-124.5 39t-118 50.5t-99.5 68t-69 97t-25.5 133q0 168 116 271.5t316 103.5q150 0 291 -101l26 82h103v-313h-133l-11 113q-104 92 -247 92q-138 0 -214.5 -62 t-76.5 -172q0 -54 25.5 -96t69 -69t99.5 -49t118 -41t123.5 -39t117.5 -48t99.5 -64t69 -91t25.5 -125q0 -184 -127 -294t-356 -110q-83 0 -159.5 8.5t-127 20.5t-89.5 24t-56 20l-18 9z" />
<glyph unicode="&#x406;" horiz-adv-x="673" d="M84 1217l8 114h490v-123l-160 -6v-1081l164 -6l-8 -115h-484l-8 123l164 6v1081z" />
<glyph unicode="&#x407;" horiz-adv-x="673" d="M68 1595q0 41 26 64q27 20 60 20q34 0 61 -20q27 -27 27 -64q0 -34 -27 -61q-24 -21 -61 -21q-36 0 -60 21q-26 23 -26 61zM84 1217l8 114h490v-123l-160 -6v-1081l164 -6l-8 -115h-484l-8 123l164 6v1081zM430 1595q0 40 27 64q27 20 61 20q32 0 62 -20q26 -26 26 -64 q0 -35 -26 -61q-27 -21 -62 -21q-37 0 -61 21q-27 24 -27 61z" />
<glyph unicode="&#x408;" horiz-adv-x="919" d="M41 303l119 8l14 -188q74 -21 148 -21q210 0 210 281v827l-194 7l8 114h488v-123l-129 -6v-819q0 -120 -27 -203t-78.5 -127.5t-114 -63t-145.5 -18.5q-87 0 -158 11.5t-99 23.5l-28 12z" />
<glyph unicode="&#x409;" horiz-adv-x="2080" d="M43 0l8 141q23 -10 64 -10q307 0 321 1075l-182 6l6 119h1110v-114l-160 -7v-413h193q567 0 567 -365q0 -199 -141 -315.5t-412 -116.5h-534l-9 123l164 6v1069h-442q-1 -601 -120.5 -911t-323.5 -310q-33 0 -60 5.5t-38 11.5zM1210 125h197q194 0 295.5 77.5 t101.5 221.5q0 136 -101.5 194t-299.5 58h-193v-551z" />
<glyph unicode="&#x40a;" horiz-adv-x="2189" d="M84 1217l8 114h490v-123l-160 -6v-477h725v485l-166 7l8 114h490v-114l-160 -7v-413h192q568 0 568 -365q0 -199 -141 -315.5t-412 -116.5h-535l-8 123l164 6v467h-725v-469l164 -4l-8 -123h-484l-8 123l164 6v1081zM1319 125h197q194 0 295.5 77.5t101.5 221.5 q0 136 -101.5 194t-300.5 58h-192v-551z" />
<glyph unicode="&#x40b;" horiz-adv-x="1644" d="M-4 1055l8 284l148 -8h786l147 8l9 -284l-136 -8l-12 155h-315v-530q7 7 22 19.5t54 36.5t83.5 43t111 33.5t136.5 14.5q202 0 288.5 -82t86.5 -254v-362l164 -6l-8 -115h-475l-9 115l156 6v325q0 129 -59 179.5t-207 50.5q-63 0 -123.5 -16t-106 -40.5t-71 -42 t-43.5 -32.5v-424l155 -6l-8 -115h-475l-8 123l164 6v1073h-318l-10 -155z" />
<glyph unicode="&#x40c;" horiz-adv-x="1460" d="M84 1217l8 114h473v-106l-143 -6v-592l188 127l424 471l-90 4v102h469v-123l-219 -6l-451 -502l502 -575l223 -2l-8 -123h-313l-80 70l-453 520l-192 -131v-332l164 -4l-8 -123h-484l-8 123l164 6v1081zM586 1456l194 293l158 -16l-236 -285z" />
<glyph unicode="&#x40d;" horiz-adv-x="1587" d="M84 1217l8 114h481v-114l-159 -7v-901l-8 -63h2l761 1065l9 20h317v-114l-158 -7v-1089l164 -6l-8 -115h-473l-8 115l162 6v893l8 71h-2l-762 -1065l-8 -20h-316l-8 123l164 6v1081zM528 1733l158 18l197 -293l-117 -10z" />
<glyph unicode="&#x40e;" horiz-adv-x="1357" d="M-45 1217l8 114h486v-114l-119 -7l426 -735l313 735l-123 2l8 119h451v-114l-160 -5l-399 -872q-49 -108 -102 -180t-113.5 -113t-125 -57.5t-147.5 -16.5q-49 0 -94 9.5t-66 19.5l-20 10h-2l-8 328l119 8l18 -233q37 -9 76 -9q84 0 150.5 44.5t136.5 168.5l-531 891z M379 1665l147 21v-3q1 -5 4 -13t17.5 -28.5t35 -36.5t60 -29t88.5 -13t88.5 12.5t60 30t34.5 35t18 29.5l4 13v3l147 -21q-1 -4 -3 -11.5t-12.5 -29.5t-25 -41.5t-42.5 -44t-63 -41.5t-89 -29t-117 -12q-50 0 -94 7t-76 19t-59.5 28t-45.5 33t-32.5 34.5t-22.5 33.5 t-13.5 28t-7.5 19z" />
<glyph unicode="&#x40f;" horiz-adv-x="1531" d="M84 1217l8 114h481v-114l-151 -7v-1077h688v1077l-158 7l9 114h479v-114l-158 -7v-1083l164 -4l-8 -123h-592l-8 -432h-144l-8 432h-592l-8 123l164 6v1081z" />
<glyph unicode="&#x410;" horiz-adv-x="1433" d="M-25 123l162 6l467 1202h227l467 -1210l162 -6l-8 -115h-461v98l135 4l-120 308h-594l-121 -304l145 -4l-8 -102h-444zM455 522h506l-252 672z" />
<glyph unicode="&#x411;" horiz-adv-x="1292" d="M84 1217l8 114h807l148 8v-317h-134l-8 176h-483v-410h192q568 0 568 -364q0 -199 -141 -311.5t-414 -112.5h-533l-8 123l164 6v1081zM422 125h196q195 0 296.5 74t101.5 217q0 136 -101.5 194t-300.5 58h-192v-543z" />
<glyph unicode="&#x412;" horiz-adv-x="1292" d="M84 1217l8 114h559q229 0 342 -83t113 -234q0 -184 -178 -301q122 -33 188 -111.5t66 -198.5q0 -188 -128 -295.5t-399 -107.5h-561l-8 123l164 6v1081zM403 125h242q193 0 282 71t89 207q0 228 -287 228h-326v-506zM403 743h318q33 0 70 14.5t73 43t59 80t23 116.5 q0 112 -76.5 160.5t-226.5 48.5h-240v-463z" />
<glyph unicode="&#x413;" horiz-adv-x="995" d="M84 1217l8 114h766l148 8v-362h-134l-10 221h-440v-1077l184 -6l-8 -115h-504l-8 123l164 6v1081z" />
<glyph unicode="&#x414;" horiz-adv-x="1474" d="M86 133h121q59 107 98.5 233.5t66.5 340t31 499.5l-174 6l9 119h1128v-123l-160 -6v-1069h180l-16 -465h-143l-19 332h-956l-23 -332h-135zM371 133h667v1065h-479q-6 -407 -54 -651.5t-134 -413.5z" />
<glyph unicode="&#x415;" d="M84 1217l8 114h852l148 8v-305h-136l-8 164h-526v-463l606 2v-129h-606v-475h582l16 184l127 -8l-8 -309h-1045l-8 123l164 6v1081z" />
<glyph unicode="&#x416;" horiz-adv-x="2043" d="M-4 0v123l186 2l375 569l-346 518l-191 5l9 114h454v-119l-86 -2l287 -446h221v446l-149 7l8 114h448v-114l-143 -7v-446h211l324 446l-82 2v119h460v-114l-196 -5l-375 -491l434 -596l205 -2l-8 -123h-289l-78 86l-395 547h-211v-512l164 -6l-8 -115h-475l-7 115l162 6 v510h-211l-327 -531l-82 -100h-289z" />
<glyph unicode="&#x417;" horiz-adv-x="1140" d="M49 176l72 107q5 -7 14 -19t42.5 -42t73 -52.5t106 -41.5t139.5 -19q172 0 263 76.5t91 205.5q0 118 -79 167.5t-234 49.5h-226v135l236 -2q91 2 172.5 78.5t81.5 192.5q0 219 -269 219q-124 0 -229 -88l-6 -123h-127l8 319h103l16 -84q130 103 264 103 q197 0 303.5 -86.5t106.5 -243.5q0 -111 -62.5 -196.5t-156.5 -137.5q278 -57 278 -303q0 -186 -135 -303t-387 -117q-74 0 -139 11.5t-110.5 29.5t-83 39.5t-60 43.5t-38.5 40t-22 29z" />
<glyph unicode="&#x418;" horiz-adv-x="1587" d="M84 1217l8 114h481v-114l-159 -7v-901l-8 -63h2l761 1065l9 20h317v-114l-158 -7v-1089l164 -6l-8 -115h-473l-8 115l162 6v893l8 71h-2l-762 -1065l-8 -20h-316l-8 123l164 6v1081z" />
<glyph unicode="&#x419;" horiz-adv-x="1587" d="M84 1217l8 114h481v-114l-159 -7v-901l-8 -63h2l761 1065l9 20h317v-114l-158 -7v-1089l164 -6l-8 -115h-473l-8 115l162 6v893l8 71h-2l-762 -1065l-8 -20h-316l-8 123l164 6v1081zM451 1665l147 21v-3q1 -5 4 -13t17.5 -28.5t35 -36.5t60 -29t88.5 -13q50 0 89.5 12.5 t60.5 30t35 35t18 29.5l4 13v3l145 -21q-1 -4 -3 -11.5t-12.5 -29.5t-25 -41.5t-42.5 -44t-63 -41.5t-89 -29t-117 -12t-116.5 11.5t-88.5 30t-63 40.5t-43 44.5t-25 41t-13 30.5z" />
<glyph unicode="&#x41a;" horiz-adv-x="1460" d="M84 1217l8 114h473v-106l-143 -6v-592l188 127l424 471l-90 4v102h469v-123l-219 -6l-451 -502l502 -575l223 -2l-8 -123h-313l-80 70l-453 520l-192 -131v-332l164 -4l-8 -123h-484l-8 123l164 6v1081z" />
<glyph unicode="&#x41b;" horiz-adv-x="1462" d="M43 0l8 141q23 -10 64 -10q307 0 321 1075l-182 6l6 119h1108v-123l-158 -6v-1075l164 -4l-8 -123h-483l-9 123l164 6v1069h-442q-1 -601 -120.5 -911t-323.5 -310q-33 0 -60 5.5t-38 11.5z" />
<glyph unicode="&#x41c;" horiz-adv-x="2052" d="M86 123l164 6l2 1081l-166 7l6 114h381l557 -1155l551 1155h379v-123l-160 -6l2 -1075l164 -4l-8 -123h-461l-8 106l147 7v985h-2l-528 -1098h-164l-530 1098h-2v-989l149 -7l-8 -102h-457z" />
<glyph unicode="&#x41d;" horiz-adv-x="1568" d="M84 1217l8 114h490v-123l-160 -6v-477h725v477l-166 6l6 123h490v-123l-158 -6v-1081l164 -6l-8 -115h-484l-8 123l164 6v467h-725v-469l164 -4l-8 -123h-484l-8 123l164 6v1081z" />
<glyph unicode="&#x41e;" horiz-adv-x="1558" d="M113 684q0 317 175.5 495.5t489.5 178.5q315 0 492.5 -178.5t177.5 -495.5q0 -322 -179.5 -517.5t-490.5 -195.5q-206 0 -357.5 90t-229.5 250.5t-78 372.5zM289 684q0 -260 130 -416.5t359 -156.5t360.5 156.5t131.5 416.5q0 254 -130.5 394.5t-361.5 140.5t-360 -140.5 t-129 -394.5z" />
<glyph unicode="&#x41f;" horiz-adv-x="1531" d="M84 1217l8 114h1348v-114l-158 -7v-1083l164 -4l-8 -123h-484l-8 123l164 6v1069h-688v-1071l164 -4l-8 -123h-484l-8 123l164 6v1081z" />
<glyph unicode="&#x420;" horiz-adv-x="1187" d="M84 1217l8 114h520q498 0 498 -401q0 -119 -43.5 -211.5t-116 -146t-158 -80.5t-178.5 -27h-204v-352l192 -7l-6 -106h-502l-8 123l164 6v1081zM410 586h172q72 0 133 18t110.5 56t78 104.5t28.5 155.5q0 286 -348 286h-174v-620z" />
<glyph unicode="&#x421;" horiz-adv-x="1361" d="M113 676q0 156 50 285t138 215.5t208.5 134t260.5 47.5q163 0 311 -101l29 82h104v-460h-135l-12 247q-121 93 -272 93q-224 0 -365 -144t-141 -399q0 -257 140.5 -411t377.5 -154q81 0 157 21.5t126.5 52.5t89.5 62.5t57 52.5l18 22l66 -111q-3 -5 -9.5 -13.5 t-30.5 -33.5t-51.5 -47.5t-73.5 -50.5t-96.5 -48t-121 -33.5t-145.5 -13.5q-216 0 -370.5 89t-232 247t-77.5 369z" />
<glyph unicode="&#x422;" horiz-adv-x="1105" d="M-4 1012l8 327l148 -8h811l147 8v-327h-127l-12 186h-332v-1071l164 -4l-8 -123h-484l-8 123l164 6v1069h-328l-16 -186h-127z" />
<glyph unicode="&#x423;" horiz-adv-x="1357" d="M-45 1217l8 114h486v-114l-119 -7l426 -735l313 735l-123 2l8 119h451v-114l-160 -5l-399 -872q-49 -108 -102 -180t-113.5 -113t-125 -57.5t-147.5 -16.5q-49 0 -94 9.5t-66 19.5l-20 10h-2l-8 328l119 8l18 -233q37 -9 76 -9q84 0 150.5 44.5t136.5 168.5l-531 891z " />
<glyph unicode="&#x424;" horiz-adv-x="1644" d="M80 700q0 99 30 173t84.5 122.5t138.5 78.5t183 42.5t227 13.5v127l-165 7l8 100h471v-100l-160 -7v-127q128 -1 226.5 -13t184 -41.5t140.5 -77t86 -121.5t31 -172q0 -460 -668 -463v-127l180 -6l-8 -109h-496l-8 109l178 6v127q-157 1 -276.5 26.5t-207.5 79 t-133.5 142t-45.5 210.5zM256 696q0 -183 118.5 -262.5t368.5 -81.5v670q-127 -1 -214 -16.5t-150.5 -52t-93 -100t-29.5 -157.5zM897 352q251 2 371.5 82t120.5 266q0 94 -30.5 157t-95 99t-151.5 50.5t-215 15.5v-670z" />
<glyph unicode="&#x425;" horiz-adv-x="1425" d="M-4 123l209 4l401 539l-399 544l-199 7l6 114h486v-114l-97 -5l310 -426v-2l2 2l309 424l-98 2v119h481v-123l-201 -4l-391 -534l408 -545l207 -2l-7 -123h-491v115l92 2l-315 430l-316 -426l96 -2v-119h-485z" />
<glyph unicode="&#x426;" horiz-adv-x="1550" d="M84 1217l8 114h488v-114l-158 -7v-1077h688v1077l-166 7l8 114h488v-114l-158 -7v-1077h180l-18 -465h-150l-16 332h-1184l-8 123l164 6v1081z" />
<glyph unicode="&#x427;" horiz-adv-x="1394" d="M43 1217l8 114h461v-114l-152 -7v-354q0 -134 66.5 -194t210.5 -60q164 0 334 74v534l-158 7l8 114h482v-114l-160 -7v-1083l164 -4l-9 -123h-499l-8 123l180 6v418q-7 -4 -22 -12t-52 -21.5t-80 -24.5t-108.5 -19.5t-135.5 -8.5q-385 0 -385 366v383z" />
<glyph unicode="&#x428;" horiz-adv-x="2082" d="M84 1217l8 114h459v-114l-129 -7v-1077h534v1077l-137 7l8 114h430v-114l-129 -7v-1077h533v1077l-137 7l8 114h461v-114l-160 -7v-1083l164 -4l-6 -123h-1897l-8 123l164 6v1081z" />
<glyph unicode="&#x429;" horiz-adv-x="2103" d="M84 1217l8 114h459v-114l-129 -7v-1077h534v1077l-137 7l8 114h430v-114l-129 -7v-1077h533v1077l-137 7l8 114h461v-114l-160 -7v-1077h168l-16 -465h-150l-18 332h-1723l-8 123l164 6v1081z" />
<glyph unicode="&#x42a;" horiz-adv-x="1492" d="M-4 1012l8 327l148 -8h630v-114l-159 -7v-413h192q567 0 567 -365q0 -199 -141 -315.5t-412 -116.5h-534l-8 123l164 6v1069h-312l-16 -186h-127zM623 125h196q194 0 296 78t102 221q0 136 -101.5 194t-300.5 58h-192v-551z" />
<glyph unicode="&#x42b;" horiz-adv-x="1873" d="M84 1217l8 114h490v-114l-160 -7v-413h192q568 0 568 -365q0 -199 -141 -315.5t-412 -116.5h-535l-8 123l164 6v1081zM422 125h196q194 0 296 78t102 221q0 136 -101.5 194t-300.5 58h-192v-551zM1286 1217l8 114h490v-123l-160 -6v-1081l164 -6l-8 -115h-484l-8 123 l164 6v1081z" />
<glyph unicode="&#x42c;" horiz-adv-x="1292" d="M84 1217l8 114h490v-114l-160 -7v-413h192q568 0 568 -365q0 -199 -141 -315.5t-412 -116.5h-535l-8 123l164 6v1081zM422 125h196q194 0 296 78t102 221q0 136 -101.5 194t-300.5 58h-192v-551z" />
<glyph unicode="&#x42d;" horiz-adv-x="1339" d="M29 184l67 109q7 -7 20 -19.5t56.5 -43.5t92 -54.5t125 -43t155.5 -19.5q216 0 346 121.5t151 355.5h-778v127h780q-15 506 -471 506q-162 0 -286 -95l-11 -108h-118l8 319h96l19 -84q168 103 317 103q308 0 468.5 -180t160.5 -502q0 -330 -180.5 -517.5t-495.5 -187.5 q-76 0 -145.5 11.5t-120.5 30.5t-95 41.5t-72.5 45.5t-49.5 42t-30 30z" />
<glyph unicode="&#x42e;" horiz-adv-x="2168" d="M84 1217l8 114h490v-106l-160 -6v-494h293q12 298 190 465.5t484 167.5q315 0 492 -178.5t177 -495.5q0 -322 -179 -517.5t-490 -195.5q-290 0 -467.5 169.5t-202.5 455.5h-297v-475l164 -6l-8 -115h-484l-8 123l164 6v1081zM897 684q0 -260 131 -416.5t361 -156.5 q229 0 360 156.5t131 416.5q0 254 -130 394.5t-361 140.5t-361.5 -140.5t-130.5 -394.5z" />
<glyph unicode="&#x42f;" horiz-adv-x="1312" d="M35 123l178 4l219 405q-130 38 -216.5 144.5t-86.5 261.5q0 98 37.5 175t100 123.5t140 70.5t162.5 24h652v-123l-160 -6v-1081l164 -6l-8 -115h-474l-8 106l164 7v401h-324l-217 -430l-59 -84h-256zM295 942q0 -127 84 -211t186 -84h334v557h-317q-51 0 -101 -16.5 t-92 -47.5t-68 -82.5t-26 -115.5z" />
<glyph unicode="&#x430;" horiz-adv-x="1097" d="M82 264q0 50 15 92.5t46 73.5t66 55t86.5 41t95.5 29t105.5 21t104 13.5t101.5 10.5q42 4 62 6v72q0 135 -53 194.5t-179 59.5q-133 0 -225 -86l-8 -133h-125l6 321h105l14 -76q129 95 276 95q353 0 353 -373v-559l123 -6l-9 -115h-249l-25 131q-8 -14 -19 -29.5 t-38.5 -40.5t-61.5 -43.5t-88.5 -32.5t-118.5 -14q-173 0 -266.5 77t-93.5 216zM250 281q0 -195 242 -195q56 0 104 15t76 34t50.5 44t30 37.5t11.5 21.5v260h-1h-1h-1h-1h-1h-1l-1 -1h-1h-1h-1h-1h-1h-1h-1h-1h-1h-1h-1h-1h-1l-1 -1h-1h-2q-226 -16 -316 -41 q-166 -45 -174 -163v-11z" />
<glyph unicode="&#x431;" horiz-adv-x="1191" d="M94 573q0 91 2.5 160.5t9.5 148t20 138.5t35 122.5t52 109t73 90.5t98 74t126.5 51.5t157.5 31.5l215 27l16 76l115 -7l-17 -211l-51 2l-233 -22q-136 -13 -226.5 -48t-145 -100t-80 -150.5t-34.5 -213.5q58 93 157.5 146t236.5 53q239 0 365 -134t126 -385 q0 -255 -134 -408t-374 -153q-256 0 -383 158.5t-127 443.5zM266 535q0 -208 84 -325.5t254 -117.5q171 0 254.5 116.5t83.5 323.5q0 202 -81.5 301t-256.5 99q-171 0 -254.5 -101.5t-83.5 -273.5v-22z" />
<glyph unicode="&#x432;" horiz-adv-x="1107" d="M76 123l123 6v766l-121 6l6 123h506q217 0 304 -63t87 -191q0 -150 -182 -231q101 -24 164 -79.5t63 -144.5q0 -315 -444 -315h-498zM354 113h226q86 0 145 18t87.5 51t40 67.5t11.5 78.5q0 73 -62.5 114t-193.5 41h-254v-370zM354 567h269q4 0 11.5 1.5t28 6.5 t39.5 12.5t42 22.5t39.5 33t28 46t11.5 61q0 81 -52.5 121t-182.5 40h-234v-344z" />
<glyph unicode="&#x433;" horiz-adv-x="876" d="M76 123l123 6v766l-121 6l6 123h633l112 8l2 -352h-126l-11 215h-332v-774l132 -6l-9 -115h-401z" />
<glyph unicode="&#x434;" horiz-adv-x="1212" d="M31 125h155q79 152 113 331.5t39 434.5l-170 6l6 127h848v-899h164l-10 -426h-127l-17 301h-866l-14 -301h-113zM334 125h526v774h-391q-3 -247 -33.5 -431.5t-101.5 -342.5z" />
<glyph unicode="&#x435;" horiz-adv-x="1060" d="M78 514q0 255 132.5 397t356.5 142q208 0 318 -111.5t110 -333.5q0 -32 -6 -63.5t-12 -47.5l-6 -16h-729q9 -191 102.5 -288t255.5 -97q58 0 111 14t87 33.5t60 39.5t38 34l11 14l78 -84q-5 -7 -14 -19t-43.5 -42.5t-75.5 -53.5t-110 -42t-146 -19q-241 0 -379.5 141.5 t-138.5 401.5zM244 594h600q2 27 2 47q0 291 -277 291q-148 0 -229.5 -87.5t-95.5 -250.5z" />
<glyph unicode="&#x436;" horiz-adv-x="1624" d="M4 0v115l164 4l281 411l-226 367l-166 4l9 123h317v-113l182 -321h168v330l-110 6l8 98h262v-434h158l190 305l-55 2l10 127h369v-123l-150 -4l-233 -365l278 -413l168 -4l-8 -115h-252l-74 86l-247 383h-154v-365l100 -2l-8 -102h-352l-8 106l108 7v356h-149l-258 -391 l-70 -78h-252z" />
<glyph unicode="&#x437;" horiz-adv-x="987" d="M33 143l63 97q4 -6 11.5 -16t37.5 -35t67 -44t102 -35t141 -16q131 0 210.5 65t79.5 150q0 75 -69.5 116.5t-179.5 41.5l-172 -2v108h180q13 2 32 7.5t46.5 20.5t49.5 35.5t38 56.5t16 79q0 160 -221 160q-128 0 -221 -76l-6 -119h-127l8 297h104l15 -67q126 86 256 86 q165 0 257.5 -67t92.5 -187q0 -161 -158 -250q98 -23 158.5 -80.5t60.5 -157.5q0 -144 -120 -242t-322 -98q-98 0 -178.5 17.5t-125 43t-75 51t-40.5 43.5z" />
<glyph unicode="&#x438;" horiz-adv-x="1294" d="M70 901l6 123h278v-774l588 774h275v-123l-121 -6v-774l123 -6l-9 -115h-395v106l115 13v690l-619 -809h-121v895z" />
<glyph unicode="&#x439;" horiz-adv-x="1294" d="M70 901l6 123h278v-774l588 774h275v-123l-121 -6v-774l123 -6l-9 -115h-395v106l115 13v690l-619 -809h-121v895zM299 1389l147 20v-2q1 -5 4 -13t17.5 -29t35 -37t60 -29t88.5 -13q50 0 89.5 12.5t60.5 30t35 35.5t18 30l4 13v2l148 -20q-1 -4 -3 -11.5t-13 -29.5 t-25.5 -41.5t-43 -44t-64 -41.5t-89.5 -29t-117 -12t-116.5 11.5t-88.5 30t-63 40.5t-43 44.5t-25 41t-13 30.5z" />
<glyph unicode="&#x43a;" horiz-adv-x="1128" d="M61 901l9 123h292v-459l150 70l215 274l-63 4l6 111h383v-123l-179 -16l-253 -305l325 -447l187 -2l-9 -131h-252l-79 86l-310 416l-121 -56v-333l107 -7l-6 -106h-379l-8 123l123 6v766z" />
<glyph unicode="&#x43b;" horiz-adv-x="1157" d="M4 0v117q95 -9 160.5 63.5t105.5 250t47 460.5l-170 6l9 127h811v-903l123 -6l-9 -115h-395l-6 123l121 6v766h-338q-10 -484 -129.5 -704.5t-329.5 -190.5z" />
<glyph unicode="&#x43c;" horiz-adv-x="1597" d="M74 123l119 4l32 772l-4 -4l-129 6l8 123h340l361 -883l366 883h336v-123l-119 -6l13 -776l123 -4l-7 -115h-262l-10 760v80h-2l-360 -840h-158l-373 838v-19l-16 -702l114 -6l-8 -111h-356z" />
<glyph unicode="&#x43d;" horiz-adv-x="1269" d="M76 123l123 6v766l-121 6l6 123h278v-436h545v332l-104 6v98h381v-123l-113 -6v-774l123 -6l-8 -115h-279v467h-545v-363l107 -4l-6 -100h-379z" />
<glyph unicode="&#x43e;" horiz-adv-x="1173" d="M78 520q0 254 130 393.5t378 139.5q249 0 378.5 -139.5t129.5 -393.5t-132.5 -401.5t-375.5 -147.5q-246 0 -377 146.5t-131 402.5zM248 518q0 -201 84 -313.5t254 -112.5q172 0 255 112t83 314q0 414 -338 414q-171 0 -254.5 -107.5t-83.5 -306.5z" />
<glyph unicode="&#x43f;" horiz-adv-x="1251" d="M76 123l123 6v766l-121 6l6 123h1083v-123l-112 -6v-774l123 -6l-9 -115h-280v895h-527v-774l123 -6l-8 -115h-393z" />
<glyph unicode="&#x440;" horiz-adv-x="1228" d="M68 -389l122 6v1278l-120 6l6 123h258l14 -115q12 17 32 35t61 46t106.5 45.5t142.5 17.5q213 0 337 -127.5t124 -364.5q0 -127 -31.5 -234t-91 -186.5t-152 -124.5t-208.5 -45q-61 0 -116 10t-89.5 24.5t-60.5 29.5t-37 25l-11 10v-461l123 -6l-8 -115h-393zM354 188 q8 -9 25 -21.5t48 -30t80 -29t105 -11.5q188 0 278.5 122.5t90.5 338.5q0 198 -87.5 283.5t-260.5 85.5q-51 0 -97 -13t-75 -30.5t-54.5 -40t-35.5 -36t-17 -24.5v-594z" />
<glyph unicode="&#x441;" horiz-adv-x="997" d="M78 522q0 259 122.5 395t354.5 136q130 0 254 -101l22 82h107v-348h-127l-10 145q-94 101 -221 101q-171 0 -251.5 -95.5t-80.5 -312.5q0 -216 93.5 -324t260.5 -108q53 0 103.5 12.5t84 31t59.5 36.5t38 30l12 13l74 -82q-4 -7 -13 -17.5t-42.5 -38.5t-73.5 -49.5 t-109 -39t-147 -17.5q-247 0 -378.5 142.5t-131.5 408.5z" />
<glyph unicode="&#x442;" horiz-adv-x="1054" d="M47 680l4 344v8l131 -8h699l131 8l-4 -352h-117l-6 215h-277v-774l123 -6l-6 -115h-395l-8 123l122 6v766h-270l-10 -215h-117z" />
<glyph unicode="&#x443;" horiz-adv-x="1079" d="M-53 901l8 123h266l340 -844h2l273 721l-109 4v119h395v-123l-135 -6l-358 -918q-202 -518 -430 -518q-41 0 -74.5 4.5t-52 10.5t-31.5 12.5t-17 11.5l-4 4l17 113q71 -25 141 -25q143 0 297 410l-383 895z" />
<glyph unicode="&#x444;" horiz-adv-x="1423" d="M78 535q0 250 143 382.5t412 135.5v354l-121 6l8 123h271v-483q267 -3 411 -136.5t144 -384.5q0 -255 -146.5 -406.5t-408.5 -154.5v-362l120 -6l-6 -115h-387l-8 123l123 6v354q-265 3 -410 154.5t-145 409.5zM240 535q0 -209 100.5 -324t292.5 -119v840 q-198 -5 -295.5 -99.5t-97.5 -297.5zM791 92q191 4 292 118t101 322q0 203 -98.5 299t-294.5 101v-840z" />
<glyph unicode="&#x445;" horiz-adv-x="1173" d="M4 0v123l176 4l297 395l-280 373l-181 6l9 123h264l299 -418h2l215 299l-62 2l9 117h383v-123l-162 -6l-279 -373l305 -403l177 -4l-7 -115h-249l-82 90l-254 344l-234 -315h39l-8 -119h-377z" />
<glyph unicode="&#x446;" horiz-adv-x="1245" d="M76 123l123 6v766l-121 6l6 123h278v-895h527v766l-121 6l8 123h279v-895h145l-8 -430h-143l-2 301h-963z" />
<glyph unicode="&#x447;" horiz-adv-x="1110" d="M-6 901l6 123h283v-322q0 -97 49.5 -155t148.5 -58q74 0 142.5 13.5t100.5 27.5l32 13v352l-121 6l8 123h279v-903l120 -6l-8 -115h-403l-6 115l131 4v321q-148 -59 -332 -59q-148 0 -228.5 77.5t-80.5 223.5v213z" />
<glyph unicode="&#x448;" horiz-adv-x="1718" d="M76 123l123 6v766l-121 6l6 123h272v-895h428v766l-118 6l8 123h268v-895h430v766l-119 6l9 123h268v-903l123 -6l-8 -115h-1561z" />
<glyph unicode="&#x449;" horiz-adv-x="1720" d="M76 123l123 6v766l-121 6l6 123h272v-895h428v766l-118 6l8 123h268v-895h430v766l-119 6l9 123h268v-895h147l-10 -430h-141l-2 301h-1440z" />
<glyph unicode="&#x44a;" horiz-adv-x="1290" d="M47 688l8 336v8l131 -8h500v-98l-117 -6v-275h195q467 0 467 -293q0 -171 -120 -261.5t-341 -90.5h-479l-8 123l123 6v766h-228l-14 -207h-117zM569 113h197q141 0 218 59.5t77 175.5q0 58 -24 96.5t-69 57.5t-93 26t-113 7h-193v-422z" />
<glyph unicode="&#x44b;" horiz-adv-x="1595" d="M76 123l123 6v766l-121 6l6 123h278v-379h195q467 0 467 -293q0 -171 -120 -261.5t-341 -90.5h-479zM362 113h197q141 0 218 59.5t77 175.5q0 58 -24 96.5t-69 57.5t-93 26t-113 7h-193v-422zM1128 926l7 98h374v-123l-112 -6v-774l123 -6l-9 -115h-278v920z" />
<glyph unicode="&#x44c;" horiz-adv-x="1083" d="M76 123l123 6v766l-121 6l6 123h278v-379h195q467 0 467 -293q0 -171 -120 -261.5t-341 -90.5h-479zM362 113h197q141 0 218 59.5t77 175.5q0 58 -24 96.5t-69 57.5t-93 26t-113 7h-193v-422z" />
<glyph unicode="&#x44d;" horiz-adv-x="1026" d="M47 121l59 90q4 -5 11.5 -13t34.5 -28.5t59 -36t85.5 -28.5t113.5 -13q166 0 260.5 94.5t113.5 268.5h-522v127h526q-14 350 -321 350q-131 0 -221 -74l-8 -113h-125l6 289h96l21 -67q115 86 251 86q204 0 331.5 -130.5t127.5 -365.5q0 -271 -141.5 -428.5t-376.5 -157.5 q-82 0 -151.5 15.5t-110 37.5t-69 44t-39.5 38z" />
<glyph unicode="&#x44e;" horiz-adv-x="1619" d="M76 123l123 6v766l-121 6l6 123h278v-436h199q14 228 136 346.5t350 118.5q495 0 495 -521q0 -261 -124.5 -411t-370.5 -150q-219 0 -344 131.5t-140 364.5h-201v-363l107 -4l-6 -100h-379zM721 532q0 -205 78.5 -322.5t249.5 -117.5q88 0 153 32t102.5 92.5t55.5 138.5 t18 177q0 201 -76.5 301.5t-252.5 100.5q-175 0 -251.5 -100.5t-76.5 -301.5z" />
<glyph unicode="&#x44f;" horiz-adv-x="1112" d="M27 123l159 4l164 293q-113 38 -184.5 119.5t-71.5 185.5q0 299 432 299h500v-123l-113 -6v-774l123 -6l-8 -115h-278v393h-254l-166 -307l-66 -86h-229zM254 721q0 -100 72.5 -159.5t189.5 -57.5h234v407h-207q-149 0 -219 -44t-70 -146z" />
<glyph unicode="&#x450;" horiz-adv-x="1060" d="M78 514q0 255 132.5 397t356.5 142q208 0 318 -111.5t110 -333.5q0 -32 -6 -63.5t-12 -47.5l-6 -16h-729q9 -191 102.5 -288t255.5 -97q58 0 111 14t87 33.5t60 39.5t38 34l11 14l78 -84q-5 -7 -14 -19t-43.5 -42.5t-75.5 -53.5t-110 -42t-146 -19q-241 0 -379.5 141.5 t-138.5 401.5zM244 594h600q2 27 2 47q0 291 -277 291q-148 0 -229.5 -87.5t-95.5 -250.5zM301 1456l158 19l196 -293l-116 -11z" />
<glyph unicode="&#x451;" horiz-adv-x="1060" d="M78 514q0 255 132.5 397t356.5 142q208 0 318 -111.5t110 -333.5q0 -32 -6 -63.5t-12 -47.5l-6 -16h-729q9 -191 102.5 -288t255.5 -97q58 0 111 14t87 33.5t60 39.5t38 34l11 14l78 -84q-5 -7 -14 -19t-43.5 -42.5t-75.5 -53.5t-110 -42t-146 -19q-241 0 -379.5 141.5 t-138.5 401.5zM244 594h600q2 27 2 47q0 291 -277 291q-148 0 -229.5 -87.5t-95.5 -250.5zM260 1319q0 39 27 63q28 21 59 21q34 0 62 -21q26 -26 26 -63q0 -36 -26 -62q-23 -20 -62 -20q-36 0 -59 20q-27 24 -27 62zM623 1319q0 40 26 63q28 21 62 21q29 0 61 -21 q27 -27 27 -63q0 -35 -27 -62q-26 -20 -61 -20q-39 0 -62 20q-26 23 -26 62z" />
<glyph unicode="&#x452;" horiz-adv-x="1226" d="M63 1130v109l127 4v172l-120 6l6 115h176l-2 -2l104 2v-293h422v-113h-422v-364h2l6 6q6 7 19 17.5t31 23.5t45.5 25.5t60 23t77 17t93.5 6.5q174 0 275.5 -86.5t101.5 -251.5v-635q0 -109 -27 -193.5t-73 -135t-102 -76t-118 -25.5q-78 0 -145 37l43 129q39 -17 72 -17 q74 0 128 64t58 199v622q0 110 -72 169.5t-196 59.5q-57 0 -107 -11.5t-80 -28.5t-52 -34t-31 -29l-9 -11v-510l123 -6l-8 -115h-393l-8 123l122 6v1001h-127z" />
<glyph unicode="&#x453;" horiz-adv-x="876" d="M76 123l123 6v766l-121 6l6 123h633l112 8l2 -352h-126l-11 215h-332v-774l132 -6l-9 -115h-401zM375 1180l194 293l158 -17l-235 -285z" />
<glyph unicode="&#x454;" horiz-adv-x="1015" d="M78 524q0 257 127 393t356 136q127 0 250 -84l18 65h105v-280h-125l-10 98q-90 78 -217 78q-170 0 -248.5 -84.5t-85.5 -278.5l520 2v-129l-516 2q33 -346 352 -346q57 0 110.5 11t88 26t61.5 30.5t39 26.5l12 11l50 -92q-4 -6 -13 -15t-43 -33t-74.5 -42t-110.5 -33 t-149 -15q-243 0 -370 143t-127 410z" />
<glyph unicode="&#x455;" horiz-adv-x="960" d="M100 285l103 8l12 -170q120 -35 234 -35q138 0 207 54.5t69 133.5q0 51 -33.5 87.5t-86.5 58t-117.5 40t-129 41.5t-117.5 54t-86.5 86t-33.5 129q0 128 100 204.5t254 76.5q136 0 256 -88l23 69h84v-282h-111l-12 100q-96 84 -215 84q-96 0 -155.5 -39t-59.5 -106 q0 -51 33.5 -88t87 -60t118.5 -42.5t130 -43t118.5 -54.5t87 -84t33.5 -124q0 -68 -25 -124.5t-75.5 -102t-137.5 -71.5t-202 -26q-96 0 -180.5 13.5t-120.5 27.5l-37 13z" />
<glyph unicode="&#x456;" horiz-adv-x="552" d="M76 123l123 6v766l-121 6l6 123h278v-903l123 -6l-8 -115h-393zM178 1319q0 46 29 72q28 22 72 22q42 0 73 -22q29 -29 29 -72t-29 -72q-26 -20 -71 -20q-49 0 -74 22q-29 23 -29 70z" />
<glyph unicode="&#x457;" horiz-adv-x="552" d="M10 1319q0 39 27 63q28 21 59 21q34 0 62 -21q26 -26 26 -63q0 -36 -26 -62q-23 -20 -62 -20q-36 0 -59 20q-27 24 -27 62zM76 123l123 6v766l-121 6l6 123h278v-903l123 -6l-8 -115h-393zM373 1319q0 40 26 63q28 21 62 21q29 0 61 -21q27 -27 27 -63q0 -35 -27 -62 q-26 -20 -61 -20q-39 0 -62 20q-26 23 -26 62z" />
<glyph unicode="&#x458;" horiz-adv-x="544" d="M-133 -504l43 131q47 -20 121 -20q72 0 124 84t52 237v967l-119 6l8 123h275v-1096q0 -119 -28 -212t-75 -147.5t-102.5 -82t-116.5 -27.5q-64 0 -109.5 9.5t-59.5 18.5zM188 1319q0 46 29 72q28 22 72 22q42 0 73 -22q29 -29 29 -72t-29 -72q-26 -20 -71 -20 q-49 0 -74 22q-29 23 -29 70z" />
<glyph unicode="&#x459;" horiz-adv-x="1687" d="M4 0v117q95 -9 160.5 63.5t105.5 250t47 460.5l-170 6l9 127h811v-379h194q467 0 467 -293q0 -171 -120 -261.5t-341 -90.5h-479l-8 123l121 6v766h-338q-10 -484 -129.5 -704.5t-329.5 -190.5zM967 113h196q141 0 218 59.5t77 175.5q0 58 -24 96.5t-69 57.5t-93 26 t-113 7h-192v-422z" />
<glyph unicode="&#x45a;" horiz-adv-x="1792" d="M76 123l123 6v766l-121 6l6 123h278v-436h545v332l-104 6v98h381v-98l-113 -6v-275h195q467 0 467 -293q0 -171 -120 -261.5t-341 -90.5h-365v467h-545v-363l107 -4l-6 -100h-379zM1071 113h197q141 0 218 59.5t77 175.5q0 58 -24 96.5t-69 57.5t-93 26t-113 7h-193v-422 z" />
<glyph unicode="&#x45b;" horiz-adv-x="1234" d="M63 1130v109l127 4v172l-120 6l6 115h176l-2 -2l104 2v-293h422v-113h-422v-364h2l6 6q6 7 19 17.5t31 23.5t45.5 25.5t60 23t77 17t93.5 6.5q174 0 275.5 -86.5t101.5 -251.5v-426l123 -6l-8 -115h-279v516q0 110 -72 169.5t-196 59.5q-57 0 -107 -11.5t-80 -28.5 t-52 -34t-31 -29l-9 -11v-510l123 -6l-8 -115h-393l-8 123l122 6v1001h-127z" />
<glyph unicode="&#x45c;" horiz-adv-x="1128" d="M61 901l9 123h292v-459l150 70l215 274l-63 4l6 111h383v-123l-179 -16l-253 -305l325 -447l187 -2l-9 -131h-252l-79 86l-310 416l-121 -56v-333l107 -7l-6 -106h-379l-8 123l123 6v766zM508 1180l194 293l158 -17l-235 -285z" />
<glyph unicode="&#x45d;" horiz-adv-x="1294" d="M70 901l6 123h278v-774l588 774h275v-123l-121 -6v-774l123 -6l-9 -115h-395v106l115 13v690l-619 -809h-121v895zM360 1456l158 19l197 -293l-117 -11z" />
<glyph unicode="&#x45e;" horiz-adv-x="1079" d="M-53 901l8 123h266l340 -844h2l273 721l-109 4v119h395v-123l-135 -6l-358 -918q-202 -518 -430 -518q-41 0 -74.5 4.5t-52 10.5t-31.5 12.5t-17 11.5l-4 4l17 113q71 -25 141 -25q143 0 297 410l-383 895zM199 1389l147 20v-2q1 -5 4 -13t17.5 -29t35 -37t60 -29 t88.5 -13q50 0 89.5 12.5t60.5 30t35 35.5t18 30l4 13v2l147 -20q-1 -4 -3 -11.5t-13 -29.5t-25.5 -41.5t-43 -44t-63.5 -41.5t-89 -29t-117 -12t-116.5 11.5t-88.5 30t-63 40.5t-43 44.5t-25 41t-13 30.5z" />
<glyph unicode="&#x45f;" horiz-adv-x="1284" d="M76 123l123 6v766l-121 6l6 123h278v-895h568v791l-105 6l9 98h260v-903l123 -6l-9 -115h-481l-6 -301h-143v301h-494z" />
<glyph unicode="&#x462;" horiz-adv-x="1435" d="M-12 936l8 309l156 -8h239v115l-164 4l9 78h487v-78l-160 -4v-101h2v-14h383l139 8v-276h-126l-7 135h-389v-307h191q567 0 567 -365q0 -200 -140.5 -316t-412.5 -116h-534l-7 123l162 6v975h-254l-16 -168h-133zM565 125h195q194 0 295.5 77.5t101.5 221.5 q0 136 -101.5 194t-299.5 58h-191v-551z" />
<glyph unicode="&#x463;" horiz-adv-x="1247" d="M43 737l8 287v8l115 -8h194v205h164v-205h299l123 8v-231h-108l-9 114h-303v-20h-2v-250h195q467 0 467 -293q0 -171 -120 -261.5t-341 -90.5h-479l-8 123l122 6v766h-204l-11 -158h-102zM524 113h197q141 0 219 59t78 176q0 57 -24.5 95.5t-69.5 57.5t-94 26.5t-113 7.5 h-193v-422z" />
<glyph unicode="&#x490;" horiz-adv-x="942" d="M84 1217l8 114h705l2 205h131l8 -338h-516v-1077l184 -6l-8 -115h-504l-8 123l164 6v1081z" />
<glyph unicode="&#x491;" horiz-adv-x="804" d="M76 123l123 6v766l-121 6l6 123h586v262h127l8 -391h-443v-774l123 -6l-8 -115h-393z" />
<glyph unicode="&#x2000;" horiz-adv-x="875" />
<glyph unicode="&#x2001;" horiz-adv-x="1751" />
<glyph unicode="&#x2002;" horiz-adv-x="875" />
<glyph unicode="&#x2003;" horiz-adv-x="1751" />
<glyph unicode="&#x2004;" horiz-adv-x="583" />
<glyph unicode="&#x2005;" horiz-adv-x="437" />
<glyph unicode="&#x2006;" horiz-adv-x="291" />
<glyph unicode="&#x2007;" horiz-adv-x="291" />
<glyph unicode="&#x2008;" horiz-adv-x="218" />
<glyph unicode="&#x2009;" horiz-adv-x="350" />
<glyph unicode="&#x200a;" horiz-adv-x="97" />
<glyph unicode="&#x2010;" horiz-adv-x="698" d="M80 506v125h541v-125h-541z" />
<glyph unicode="&#x2011;" horiz-adv-x="698" d="M80 506v125h541v-125h-541z" />
<glyph unicode="&#x2012;" horiz-adv-x="698" d="M80 506v125h541v-125h-541z" />
<glyph unicode="&#x2013;" horiz-adv-x="1112" d="M80 506v125h952v-125h-952z" />
<glyph unicode="&#x2014;" horiz-adv-x="1478" d="M80 506v125h1321v-125h-1321z" />
<glyph unicode="&#x2018;" horiz-adv-x="335" d="M51 1155q0 99 59 217t148 180l57 -53q-74 -59 -116 -150.5t-39 -166.5q27 0 55 -21q27 -24 27 -61q0 -36 -27 -60q-28 -22 -63 -22q-37 0 -62 22l-12 13q-8 12 -10 18q-17 33 -17 84z" />
<glyph unicode="&#x2019;" horiz-adv-x="350" d="M10 1061q75 57 117 148t39 167q-36 4 -55 23q-29 26 -29 59q0 36 29 62q23 20 61 20t64 -20q7 -7 10 -13q28 -35 28 -104q0 -101 -58 -217.5t-146 -177.5z" />
<glyph unicode="&#x201a;" horiz-adv-x="350" d="M10 -281q75 58 117 149t39 167q-37 4 -55 22q-29 26 -29 60q0 35 29 61q24 21 61 21t64 -21q8 -8 10 -12q28 -35 28 -103q0 -100 -58 -217t-146 -180z" />
<glyph unicode="&#x201c;" horiz-adv-x="686" d="M51 1155q0 99 59 217t148 180l57 -53q-74 -59 -116 -150.5t-39 -166.5q27 0 55 -21q27 -24 27 -61q0 -36 -27 -60q-28 -22 -63 -22q-37 0 -62 22l-12 13q-8 12 -10 18q-17 33 -17 84zM401 1155q0 99 59 217t148 180l58 -53q-74 -59 -116.5 -150.5t-39.5 -166.5 q27 0 55 -21q27 -24 27 -61q0 -36 -27 -60q-28 -22 -63 -22q-37 0 -62 22l-12 13q-8 12 -10 18q-17 33 -17 84z" />
<glyph unicode="&#x201d;" horiz-adv-x="700" d="M10 1061q75 57 117 148t39 167q-36 4 -55 23q-29 26 -29 59q0 36 29 62q23 20 61 20t64 -20q7 -7 10 -13q28 -35 28 -104q0 -101 -58 -217.5t-146 -177.5zM360 1061q75 57 117 148t39 167q-36 4 -55 23q-29 26 -29 59q0 36 29 62q23 20 61 20t64 -20q7 -7 10 -13 q29 -36 29 -104q0 -100 -58.5 -217t-146.5 -178z" />
<glyph unicode="&#x201e;" horiz-adv-x="700" d="M10 -281q75 58 117 149t39 167q-37 4 -55 22q-29 26 -29 60q0 35 29 61q24 21 61 21t64 -21q8 -8 10 -12q28 -35 28 -103q0 -100 -58 -217t-146 -180zM360 -281q75 58 117 149t39 167q-37 4 -55 22q-29 26 -29 60q0 35 29 61q24 21 61 21t64 -21q8 -8 10 -12 q29 -36 29 -103q0 -100 -58.5 -217t-146.5 -180z" />
<glyph unicode="&#x2026;" horiz-adv-x="1560" d="M176 76q0 43 33 69q28 25 72 25q40 0 71 -25q33 -30 33 -69q0 -40 -33 -70q-30 -24 -71 -24q-45 0 -72 24q-33 26 -33 70zM672 76q0 43 33 69q28 25 71 25q41 0 72 -25q33 -30 33 -69q0 -40 -33 -70q-30 -24 -72 -24q-44 0 -71 24q-33 26 -33 70zM1169 76q0 43 33 69 q28 25 72 25q41 0 72 -25q32 -29 32 -69q0 -41 -32 -70q-30 -24 -72 -24q-45 0 -72 24q-33 26 -33 70z" />
<glyph unicode="&#x202f;" horiz-adv-x="350" />
<glyph unicode="&#x2039;" horiz-adv-x="761" d="M197 512l352 350l69 -76l-272 -276l272 -281l-69 -77z" />
<glyph unicode="&#x203a;" horiz-adv-x="761" d="M141 227l273 273l-271 282l68 80l352 -362l-352 -348z" />
<glyph unicode="&#x205f;" horiz-adv-x="437" />
<glyph unicode="&#x20ac;" horiz-adv-x="1357" d="M109 451v104h135q-4 78 -4 121v63l-131 4v107h143q36 242 175 375t368 133q172 0 309 -103l20 86h97v-290h-119l-8 79q-103 103 -275 103t-271 -94t-128 -289h600v-113h-610v-61q0 -84 4 -121h606v-111h-588q39 -174 149.5 -261t299.5 -87q71 0 137.5 17t110.5 41t78 48 t49 41l16 17l53 -90q-6 -8 -17 -21.5t-53 -48t-91 -60.5t-131.5 -47.5t-174.5 -21.5q-503 0 -598 475z" />
<glyph unicode="&#x2122;" horiz-adv-x="1787" d="M135 1442v94h670v-94h-303v-623h-103v623h-264zM854 819l45 717h111l243 -614l275 614h100l25 -717h-99l-20 535l-240 -535h-88l-235 557l-19 -557h-98z" />
<glyph unicode="&#x25fc;" horiz-adv-x="1024" d="M0 0v1024h1024v-1024h-1024z" />
</font>
</defs>
</svg>
